<?xml version="1.0" encoding="UTF-8" standalone="no"?>
<!DOCTYPE svg PUBLIC "-//W3C//DTD SVG 1.1//EN"
"http://www.w3.org/Graphics/SVG/1.1/DTD/svg11.dtd">
<svg viewBox="0 0 935 1210" version="1.1" xmlns="http://www.w3.org/2000/svg" xmlns:xlink="http://www.w3.org/1999/xlink">
<defs>
<style type="text/css"><![CDATA[
.g0{
fill: #D9D9D9;
}
.g1{
}
]]></style>
</defs>
<path fill-rule="evenodd" d="M89.5,327.6h708v-15H89.5v15Z" class="g0"/>
<path fill-rule="evenodd" d="M88.9,600.3H90V312.1H88.9V600.3Z" class="g1"/>
<path fill-rule="evenodd" d="M145.4,600.3h1.1V313.2h-1.1V600.3Z" class="g1"/>
<path fill-rule="evenodd" d="M221.9,600.3H223V313.2h-1.1V600.3Z" class="g1"/>
<path fill-rule="evenodd" d="M521.7,600.3h1.1V313.2h-1.1V600.3Z" class="g1"/>
<path fill-rule="evenodd" d="M662.9,600.3H664V313.2h-1.1V600.3Z" class="g1"/>
<path fill-rule="evenodd" d="M796.7,600.3h1.1V313.2h-1.1V600.3Z" class="g1"/>
<path fill-rule="evenodd" d="M90,313.2H797.8v-1.1H90v1.1Z" class="g1"/>
<path fill-rule="evenodd" d="M90,328H797.8v-1.1H90V328Z" class="g1"/>
<path fill-rule="evenodd" d="M90,600.3H797.8v-1.1H90v1.1Z" class="g1"/>
<image preserveAspectRatio="none" x="674" y="140" width="95" height="74" xlink:href="img/1.png"/>
</svg>